<?xml version="1.0" encoding="utf-8"?>
<!-- Generator: $$$/GeneralStr/196=Adobe Illustrator 27.6.0, SVG Export Plug-In . SVG Version: 6.00 Build 0)  -->
<svg version="1.2" baseProfile="tiny" id="Livello_1"
	 xmlns="http://www.w3.org/2000/svg" xmlns:xlink="http://www.w3.org/1999/xlink" x="0px" y="0px" viewBox="0 0 116.19 19"
	 overflow="visible" xml:space="preserve">
<g>
	<path fill="#010101" d="M110.68,8.35L110.68,8.35c0,0,0.01,0,0.01,0.01C110.68,8.36,110.68,8.36,110.68,8.35L110.68,8.35z"/>
	<path fill="#010101" d="M113.22,9.68c0.07,0.04,0.13,0.07,0.18,0.09c0.02,0.01,0.03,0.03,0.04,0.04c0.01,0.01,0.04,0.03,0.06,0.03
		c0.03,0.01,0.04,0,0.1,0.03c0.05,0.02,0.1,0.05,0.13,0.06c0.02,0,0.07,0.01,0-0.04c-0.01-0.01-0.01-0.01-0.01-0.01
		c0.01,0,0.02,0,0.02,0c0.01-0.01,0.07,0.02-0.02-0.04c-0.01-0.01-0.01-0.01-0.01-0.01c0.01,0,0.02,0,0.03,0
		c0.01,0,0.03,0.01-0.05-0.05c0.02,0.01,0.04,0.02,0.07,0.04c-0.02-0.01-0.04-0.03-0.07-0.05c0.03,0.01,0.05,0.03,0.08,0.05
		c-0.03-0.02-0.08-0.05-0.07-0.05c0.01,0,0,0,0,0c0,0-0.05-0.03-0.07-0.04c-0.02-0.01,0.03,0.02,0.05,0.03c0,0,0,0-0.01-0.01
		c-0.04-0.02-0.08-0.05-0.12-0.07c-0.04-0.02-0.05-0.03-0.01,0c0.02,0.01,0.03,0.02,0.04,0.03c-0.01,0-0.02,0-0.03,0
		c-0.04-0.02-0.09-0.05-0.1-0.05c-0.07-0.01-0.19-0.01-0.34-0.02c0.02,0.01,0.05,0.03,0.07,0.04
		C113.19,9.67,113.21,9.68,113.22,9.68L113.22,9.68z"/>
	<path fill="#010101" d="M110.76,8.39c-0.03-0.01-0.05-0.02-0.07-0.03c0.02,0.01,0.04,0.01,0.05,0.02
		C110.77,8.39,110.79,8.4,110.76,8.39L110.76,8.39z"/>
	<path fill="#010101" d="M116.01,13.05c-0.04,0-0.09,0.01-0.13,0.01c-0.02-0.02-0.03-0.05-0.06-0.07c-0.04-0.02,0.01-0.06,0-0.09
		c0-0.02-0.02-0.03-0.03-0.04c-0.02-0.01-0.08,0-0.08-0.02c0-0.02-0.02-0.04-0.03-0.06c-0.06,0.01-0.07-0.01-0.08-0.04
		c-0.01-0.02,0-0.05-0.05-0.04c-0.05,0.01-0.01-0.04-0.05-0.04c-0.08,0.01-0.03-0.05-0.11-0.04c-0.04-0.01-0.02-0.05-0.04-0.08
		c-0.07,0.01-0.15,0.01-0.23,0.02c-0.01,0,0-0.02,0-0.03c0.01-0.01,0.03-0.03,0.04-0.04c0.01-0.01,0-0.02,0-0.01
		c-0.07,0.02-0.06-0.02-0.06-0.04c0-0.02,0-0.02-0.1,0c-0.01,0-0.02,0-0.02,0c0-0.02,0-0.04-0.06-0.03c0-0.02-0.01-0.05-0.01-0.07
		c0,0,0-0.01,0-0.02c-0.06,0-0.13,0.01-0.19,0.01c-0.02,0-0.01-0.02-0.01-0.04c-0.04,0.02-0.08,0.03-0.12,0.05c0-0.03,0-0.05,0-0.09
		c-0.05,0-0.1,0-0.16,0.01c-0.04,0-0.04-0.01-0.04-0.03c0-0.02,0-0.04,0.05-0.08c0.05-0.04,0.04-0.04-0.01-0.03
		c-0.07,0-0.02,0.01-0.13-0.03c-0.03-0.01-0.05-0.02-0.07-0.01c-0.03,0-0.07,0-0.11,0.01c-0.05,0.01-0.1-0.01-0.15-0.04
		c-0.02-0.01-0.03,0-0.04,0.02c-0.04,0.06-0.1,0.05-0.17-0.02c-0.02-0.02-0.03-0.03-0.06-0.05c-0.04-0.02-0.08-0.04-0.12-0.06
		c-0.01,0.01-0.02,0.02-0.03,0.04c-0.02,0.03-0.08,0.03-0.13,0c-0.05-0.02-0.11-0.05-0.16-0.07c-0.05-0.02-0.11-0.07-0.16-0.06
		c-0.08,0.01-0.14-0.05-0.21-0.05c-0.05,0-0.11,0-0.16,0.01c-0.03,0-0.06,0-0.08-0.01c-0.08-0.05-0.14-0.04-0.21-0.04
		c-0.03,0-0.06,0-0.09-0.02c-0.06-0.03-0.11-0.04-0.17-0.04c-0.05,0-0.07-0.04-0.09-0.07c-0.03-0.03-0.07-0.04-0.09-0.01
		c-0.03,0.03-0.03,0.03-0.09,0.01c-0.11-0.04-0.12-0.04-0.18,0.01c-0.01,0.01-0.01,0.02-0.02,0.02c-0.01,0-0.03,0-0.04-0.01
		c-0.1-0.06-0.18-0.04-0.27-0.04c-0.09-0.04-0.18-0.08-0.27-0.12c-0.06,0-0.12,0-0.18,0c-0.08-0.04-0.16-0.07-0.24-0.11
		c-0.03-0.01-0.11-0.02-0.12,0.01c-0.03,0.07-0.1,0.03-0.18-0.01c-0.09,0.01-0.16-0.02-0.24-0.06c-0.05-0.02-0.1-0.04-0.14-0.06
		c-0.05,0-0.11,0-0.15,0c-0.03,0-0.07-0.01-0.1-0.03c-0.07-0.04-0.13-0.04-0.2-0.03c-0.05,0-0.1,0-0.15-0.03
		c-0.03-0.01-0.07-0.03-0.1-0.03c-0.1,0-0.2,0.01-0.31-0.06c-0.09,0-0.18-0.02-0.26-0.07c-0.16,0-0.32,0-0.48,0.01
		c-0.07,0-0.1-0.01-0.14-0.05c-0.1-0.08-0.1-0.08-0.22-0.08c-0.09,0-0.09,0-0.22-0.05c-0.05-0.02-0.15-0.03-0.16-0.01
		c-0.04,0.08-0.17,0.07-0.32,0.05c-0.05-0.01-0.07-0.03-0.08-0.05c-0.02,0-0.04,0-0.06,0c-0.08-0.03-0.15-0.06-0.23-0.09
		c-0.09-0.03-0.18-0.08-0.28-0.1c-0.14,0-0.27,0-0.41,0c-0.03,0-0.08-0.02-0.11-0.03c-0.06-0.03-0.12-0.03-0.18-0.03
		c-0.08,0-0.15,0-0.24-0.04c-0.08-0.03-0.16-0.07-0.24-0.09c-0.03-0.01-0.09-0.01-0.12,0c-0.04,0.01-0.06,0.04-0.08,0.06
		c-0.03-0.01-0.05-0.02-0.07-0.03c-0.06-0.02-0.13-0.04-0.18-0.07c-0.09-0.04-0.16-0.02-0.25-0.05c-0.05-0.01-0.06-0.03-0.09-0.06
		c-0.04-0.05-0.09-0.06-0.15-0.06c-0.11,0-0.23,0-0.34,0c-0.23-0.3-0.51-0.59-0.84-0.87c0.02,0,0.05,0,0.07,0
		c0.1,0,0.09-0.04,0.12-0.07c0.24,0,0.49,0,0.74,0.01c0.03,0.01,0.08,0.03,0.12,0.04c0.1,0.03,0.16,0.03,0.2,0
		c0.01-0.01,0.01-0.01,0.01-0.02c0.01-0.02,0.04-0.01,0.1,0.01c0.05,0.02,0.09,0.03,0.11,0.03c0.1-0.03,0.1-0.03,0.22,0.01
		c0.02-0.02,0.03-0.04,0.05-0.06c0.03,0,0.07,0,0.11,0c0.31,0,0.61,0.01,0.89,0.01c0.1,0,0.2,0.03,0.3,0.07
		c0.02-0.03,0.01-0.06,0.1-0.06c0.18,0.01,0.35,0.01,0.53,0.01c0.04,0,0.07,0.01,0.12,0.03c0.07,0.03,0.12,0.04,0.17,0.04
		c0.06,0,0.14,0.01,0.14-0.03c0-0.01,0.02-0.03,0.04-0.03c0.1,0,0.19,0,0.3,0c0.13,0.01,0.22-0.03,0.42,0.06
		c0.12,0.01,0.24,0.02,0.21-0.05c0.14,0,0.27,0,0.41,0.01c0.06,0,0.07,0,0.03-0.05c-0.03-0.03-0.08-0.06-0.04-0.07
		c0.03-0.01,0.07-0.01,0.15,0.02c0.06,0.02,0.12,0.04,0.18,0.07c0.06,0.02,0.11,0.04,0.15,0.03c0.03,0,0.06,0,0.09,0
		c0.06,0,0.06,0,0.25,0.06c0.05,0.01,0.1,0.02,0.1,0c0-0.01,0-0.03,0-0.05c0.16,0,0.31,0,0.47,0.01c0.08,0,0.09-0.02,0.07-0.06
		c0.04,0.02,0.08,0.03,0.11,0.04c0.08,0.03,0.11,0.03,0.12,0c0-0.01,0.01-0.02,0.02-0.03c0,0,0.03,0.01,0.05,0.02
		c0.08,0.04,0.11,0.02,0.18,0.05c0.07,0.03,0.13,0.05,0.18,0.05c0.12,0,0.24,0,0.37,0.01c0.05,0,0.03-0.03,0.03-0.05
		c0.03,0.01,0.06,0.02,0.09,0.04c0.07,0.03,0.11,0.03,0.11,0c0-0.01,0-0.02-0.01-0.03c0.16,0,0.31,0.01,0.45,0.01
		c0.06,0.03,0.12,0.06,0.16,0.06c0.14,0,0.28,0.01,0.41,0.01c0.04,0,0.11,0.02,0.05-0.04c0.02-0.01,0.07-0.01,0.14,0.01
		c0.02,0.01,0.05,0.03,0.08,0.05c0.06,0.04,0.09,0.05,0.11,0.05c0.11,0,0.21,0.01,0.29,0.01c-0.05-0.03-0.11-0.06-0.16-0.08
		c-0.04-0.02-0.1-0.06-0.15-0.09c-0.01-0.01-0.03-0.02-0.04-0.02c-0.04-0.02-0.08-0.04-0.12-0.06c-0.05-0.02-0.1-0.04-0.15-0.06
		c-0.05-0.03-0.1-0.06-0.15-0.09c-0.11-0.05-0.19-0.07-0.32-0.14c-0.04-0.01-0.08-0.03-0.12-0.04c-0.05-0.02-0.1-0.03-0.16-0.07
		c-0.04-0.02-0.08-0.05-0.12-0.07c-0.1-0.06-0.21-0.12-0.31-0.16c-0.08-0.04-0.16-0.09-0.23-0.13c-0.01-0.01-0.02-0.01-0.03-0.02
		c-0.05-0.03-0.11-0.08-0.08-0.07c0.01,0,0.01,0-0.01-0.01c-0.06-0.03-0.07-0.05-0.06-0.05c0.01,0,0.01,0,0.01-0.01
		c0,0-0.03-0.02-0.05-0.03c-0.05-0.02-0.05-0.03-0.04-0.02c0.01,0-0.04-0.02-0.11-0.05c-0.01-0.01-0.02-0.01-0.03-0.02
		c-0.03-0.01-0.05-0.02-0.06-0.02c-0.09-0.03-0.13-0.05-0.14-0.05c-0.02,0-0.04-0.01-0.09-0.02c-0.05-0.01,0.03,0.02-0.22-0.06
		c-0.04-0.01-0.08-0.02-0.11-0.02c-0.02,0-0.11-0.03-0.2-0.05c-0.03,0-0.07-0.01-0.11-0.01c-0.03,0-0.03,0,0.06,0.03
		c0.01,0.01,0,0-0.03,0c-0.05-0.01-0.14-0.04-0.19-0.05c-0.04-0.01-0.02,0-0.11-0.02c-0.05-0.01-0.11-0.03-0.12-0.03
		c-0.06-0.01-0.1-0.01-0.15-0.01c0.15,0.05,0.09,0.04,0.04,0.03c-0.05-0.01-0.1-0.01-0.15-0.01c-0.07-0.01-0.13-0.01-0.21-0.02
		c-0.06-0.01-0.04,0.01-0.31-0.05c-0.05-0.01-0.11-0.01-0.15-0.01c-0.03,0-0.16-0.03-0.28-0.05c-0.11-0.01-0.24-0.02-0.36-0.02
		c-0.04,0-0.18-0.03-0.29-0.05c0.08,0.03,0.14,0.04,0.07,0.04c-0.13-0.01-0.23-0.01-0.35-0.02c-0.05,0-0.06-0.01-0.23-0.04
		c-0.26-0.05-0.25-0.05-0.31-0.06c-0.04,0-0.08,0-0.14-0.01c-0.07-0.01-0.11-0.01,0.02,0.03c-0.01,0.01-0.09,0.01-0.23-0.01
		c-0.04,0-0.16-0.03-0.19-0.03c-0.13-0.02-0.26-0.03-0.05,0.03c-0.18-0.01-0.37-0.02-0.55-0.03c-0.06,0-0.22-0.03-0.34-0.05
		c-0.1,0-0.21-0.01-0.32-0.01c-0.16-0.01-0.34-0.02-0.49-0.02c-0.07,0-0.23-0.03-0.39-0.05c0.02,0.01,0.03,0.01,0.05,0.02
		c0.05,0.01,0.1,0.03,0.03,0.02c-0.07-0.01-0.07,0-0.26-0.03c-0.07-0.01-0.15-0.02-0.18-0.03c-0.08-0.01-0.12-0.01-0.18-0.01
		c-0.09,0-0.13,0-0.43-0.05c-0.16-0.01-0.37-0.02-0.37-0.01c0,0,0.1,0.03,0.08,0.03c-0.07,0-0.15,0-0.26-0.01
		c-0.03,0-0.13-0.02-0.2-0.03c-0.17-0.02-0.32-0.03-0.26-0.01c0.02,0.01,0.05,0.02,0.07,0.02c-0.08-0.01-0.15-0.02-0.23-0.03
		c-0.08-0.01-0.08-0.01-0.02,0.01c0.04,0.01,0.07,0.02,0.04,0.02c-0.06,0-0.15,0-0.24-0.01c-0.08,0-0.19-0.01-0.24-0.01
		c-0.06,0-0.34-0.05-0.43-0.05c-0.08,0-0.12,0-0.2-0.01c-0.1-0.01,0,0.02,0.05,0.04c-0.11-0.02-0.21-0.03-0.32-0.05
		c-1.21-0.04-2.5-0.08-3.88-0.11l-1.36-0.24c-2.08-0.36-2.97-0.87-2.97-1.71c0-1.14,1.52-1.88,3.87-1.88c3.28,0,4.07,1.31,4.15,2.41
		l0.08,1.04h4.03l-0.03-1.15C104.27,2.21,101.11,0,96.11,0c-4.99,0-7.98,2.15-7.98,5.46c0,0.66,0.12,1.24,0.33,1.75
		c-0.09,0-0.13,0.01-0.11,0.03c0.01,0.02-0.08,0.01-0.18,0c-0.12-0.02-0.29-0.06-0.25-0.01c0.02,0.02-0.06,0.02-0.14,0.02
		c-0.17-0.01-0.18,0.02-0.16,0.05c-0.3-0.05-0.31-0.05-0.46-0.05c-0.11,0-0.23-0.02-0.36-0.04c-0.19-0.02-0.36-0.03-0.38,0.01
		c0.07,0.01,0.13,0.02,0.2,0.04c0.03,0.01,0.09,0.01,0.09,0.02c0.02,0.02-0.01,0.02-0.05,0.02c-0.08,0-0.18-0.01-0.26-0.03
		c-0.08-0.02-0.13-0.05-0.26-0.06c-0.01,0.03-0.03,0.06-0.05,0.09c-0.14-0.02-0.26-0.05-0.38-0.05c-0.3,0-0.61,0-0.92,0
		c-0.04,0-0.05,0.01-0.07,0.02c-0.05,0.03-0.08,0.02-0.23-0.03c-0.1-0.03-0.17-0.05-0.25-0.05c-0.15,0-0.3,0-0.46,0
		c-0.13,0-0.1,0.03-0.13,0.05c-0.09-0.02-0.19-0.04-0.28-0.05c-0.09-0.01-0.16,0-0.23,0c-0.03,0-0.05,0-0.08,0
		c-0.04,0.03-0.02,0.07-0.11,0.09c-0.14-0.02-0.26-0.04-0.38-0.06c-0.28-0.11-0.56-0.22-0.85-0.31c-0.25-0.02-0.37-0.09-0.61-0.11
		c-0.01,0-0.05-0.01-0.05-0.01c0.07-0.02-0.11-0.06-0.23-0.09c-0.11-0.03-0.25-0.05-0.42-0.07c-0.02,0-0.05-0.01-0.07-0.01
		c-0.11-0.03-0.2-0.03-0.32-0.03c-0.11,0-0.13-0.01-0.24-0.03c-0.05-0.01-0.1-0.02-0.16-0.02c-0.05,0-0.1,0-0.15,0
		c-0.09,0-0.17-0.01-0.24-0.03c-0.04-0.01-0.12-0.02-0.16-0.02c-0.2,0-0.46-0.03-0.7-0.04c-0.17,0-0.34,0-0.51,0
		c-0.06,0-0.12-0.01-0.18-0.01c-0.07-0.01-0.09,0-0.07,0c0.02,0.01-0.01,0.01-0.09,0.01c-0.06,0-0.11,0-0.17,0
		c0.06,0.02-0.16,0.01-0.14,0.03c0.01,0.01-0.01,0.01-0.06,0.01c-0.05,0-0.09,0-0.13,0c-0.06,0-0.09,0-0.09,0.01
		c0.01,0.01-0.03,0.02-0.14,0.02c-0.01,0.01-0.02,0.03-0.17,0.02c0.04,0.02-0.15,0.02-0.19,0.04c-0.01,0.01-0.02,0.01-0.05,0.01
		c-0.08,0-0.19,0-0.24,0.01c-0.05,0.01-0.04,0.03-0.16,0.02c-0.02,0-0.04,0-0.04,0.01c0.01,0.03-0.18,0.02-0.31,0.02
		c-0.11,0.02-0.03,0.07-0.28,0.06c-0.02,0.02-0.09,0.04-0.22,0.03c-0.02,0.02-0.1,0.04-0.25,0.03c-0.08,0-0.13,0-0.16,0.02
		c-0.03,0.02-0.07,0.03-0.12,0.05c-0.14,0-0.29,0-0.44,0c-0.03,0-0.05,0.01-0.05,0.03c0,0.01,0.03,0.02,0.03,0.04
		c0,0.01-0.02,0.01-0.03,0.01c-0.16-0.01-0.2,0.02-0.26,0.04c-0.17-0.01-0.18,0.03-0.27,0.04c-0.02,0-0.05,0-0.08,0
		c-0.08,0-0.11,0.01-0.09,0.04c0.03,0.03,0,0.05-0.06,0.05c-0.05,0-0.11,0-0.16,0c-0.08,0-0.16,0.01-0.24,0
		c-0.24-0.02-0.24,0.06-0.45,0.05c-0.06,0.02-0.15,0.03-0.18,0.06c-0.05,0.04-0.24,0.02-0.3,0.05c-0.06,0.03-0.15,0.03-0.27,0.03
		c-0.05,0-0.11,0-0.16,0c-0.06,0.02-0.14,0.04-0.19,0.07c-0.06,0.03-0.2,0.02-0.27,0.04c-0.1,0.03-0.17,0.06-0.27,0.09
		c-0.07,0-0.16,0-0.24,0c-0.11,0-0.15,0.02-0.19,0.04c-0.04,0.02-0.07,0.02-0.14,0.02c0.03,0.02,0.02,0.04-0.04,0.04
		c-0.07,0.01-0.17,0.01-0.22,0.02c-0.08,0.02-0.15,0.05-0.28,0.04c-0.19,0.03-0.24,0.12-0.53,0.11c-0.04,0-0.08,0.02-0.12,0.04
		c-0.02,0.01-0.04,0.01-0.06,0.02c-0.09,0.04-0.21,0.06-0.37,0.05c-0.05,0-0.15,0-0.16,0.01c-0.1,0.07-0.4,0.03-0.5,0.1
		c-0.04,0.03-0.12,0.04-0.19,0.06C67.65,8,67.56,8.04,67.45,8.08c-0.06,0.02-0.13,0.04-0.2,0.06C67.07,8.12,67,8.2,66.87,8.19
		c-0.05,0-0.1,0-0.13,0.01l0.25-0.97c0.11,0.02,0.23,0.02,0.35-0.01c0.05,0,0.11,0,0.18,0c0.27,0.01,0.47-0.07,0.6-0.2l0.34-0.08
		c0.07,0.01,0.15,0.01,0.24,0.01c0.14,0,0.29,0,0.43,0h0.16l0.06,0.01c0.08,0.01,0.17,0.02,0.3,0.02c0.12,0,0.25,0,0.38,0
		c0.14,0,0.23-0.01,0.3-0.02h0.03c0.05,0,0.11,0,0.14-0.01c0.09-0.01,0.15-0.03,0.18-0.04l0.5-0.13l-0.02-0.25l1.81-0.43l-2.7-0.55
		c-0.11-0.02-0.21-0.04-0.34-0.06c0.1,0.02,0.21,0.08,0.3,0.17l-0.02,0.07l-0.06-0.05c0,0,0.01,0,0.01,0h-0.01l-0.1-0.08l-0.01-0.04
		l-0.03,0.01l-0.02-0.01c-0.04-0.03-0.09-0.06-0.12-0.08V5.46l-0.04,0c-0.08-0.03-0.15-0.04-0.19-0.04c-0.01,0-0.01,0-0.02,0
		c-0.02,0-0.03-0.01-0.05-0.01c-0.06-0.02-0.12-0.03-0.18-0.03l-0.42-0.01c-0.07,0-0.23-0.01-0.37-0.01h-0.62c-0.08,0-0.1,0-0.12,0
		c-0.03,0-0.09,0-0.18,0c-0.11,0-0.17,0-0.21,0l1.3-5.12h-4.21l-1.29,5.12c-0.06,0-0.11,0-0.14,0h-0.24c-0.08,0-0.15,0-0.21,0H61.9
		h-0.28c-0.09,0-0.16,0-0.22,0c-0.05,0-0.12,0-0.2,0c-0.09,0-0.19,0-0.31,0c-0.07,0-0.24,0-0.33,0h-1.53l-1.85-5.12h-4.22
		l-1.85,5.12c-0.09,0-0.16,0-0.24,0h-0.11h-0.03c-0.02,0-0.1,0-0.24,0h-0.12v0c-0.05,0-0.09,0-0.12,0h-0.03c-0.07,0-0.14,0-0.24,0
		H48.2c-0.02,0-0.1,0-0.24,0H46.9L45.6,0.22h-4.21l1.31,5.14l-1.25,0.01c-0.09,0-0.18,0-0.4,0.01c-0.03,0-0.05,0-0.08,0L39.65,5.4
		c-0.08,0-0.2,0-0.31,0.01l-0.97,0.01l-0.1,0c-0.08,0-0.15,0.01-0.21,0.01h-0.39c-0.03,0-0.09,0-0.14,0h-0.04
		c-0.05,0-0.12,0-0.2,0.01h-0.01c-0.03,0-0.07-0.01-0.36,0c-0.07,0-0.11,0-0.14,0l-0.42,0.01c-0.04,0-0.08,0-0.13,0
		c-0.03,0-0.05,0-0.07,0c-0.03,0-0.07,0-0.11,0h-0.04c-0.07,0-0.2,0.01-0.35,0.01L34.8,5.48l0,0c-0.09-0.01-0.18-0.01-0.23,0
		c-0.07,0-0.12,0.01-0.16,0.01c-0.04-0.01-0.09-0.01-0.13-0.01c-0.05,0-0.11,0-0.19,0.01c-0.04,0-0.07,0.01-0.11,0.01
		c-0.03,0-0.12,0.01-0.19,0.01l-0.96,0.01l0,0c-0.11-0.01-0.22,0-0.31,0L30.6,5.57c-0.02,0-0.09,0-0.13,0.01
		c-0.04,0-0.09,0.01-0.11,0.01l-0.32,0.02c-0.07-0.01-0.14-0.01-0.21,0l-1.08,0.03c-0.12,0-0.25,0.01-0.35,0.01
		c-0.04,0-0.1,0-0.15,0.01l0.95-0.33l-4.8,0.38c-0.09,0.01-0.18,0.02-0.21,0.02c-0.02,0-0.05,0-0.09,0c-0.08,0-0.19,0.01-0.39,0.03
		h-0.1c-0.08-0.01-0.17-0.02-0.27-0.01c-0.13,0.01-0.22,0.02-0.29,0.02c-0.11,0-0.22,0-0.34,0.01l-0.33-0.01
		c-0.04,0-0.12,0.01-0.2,0.01l-0.03,0c-0.12,0.01-0.22,0.01-0.33,0.01c-0.28,0.01-2.44,0.16-5.76,0.41V3.83h6.55V0.23H5.37v3.61H12
		V6.5c-1.64,0.12-2.95,0.21-3.12,0.22c-0.11,0-0.16,0.01-0.26,0.03l-1,0.03c-0.1-0.02-0.21-0.02-0.34,0.01
		c-0.01,0-0.03,0.01-0.04,0.01c-0.04,0-0.08,0-0.12,0.01c-0.03,0-0.06,0.01-0.09,0.02l-0.3,0.06L6.56,6.88L6.41,6.9
		C6.35,6.91,6.29,6.93,6.23,6.94C6.19,6.95,6.16,6.96,6.12,6.98L6.09,6.98C6.03,6.99,5.98,7.01,5.92,7.03
		C5.9,7.04,5.88,7.05,5.84,7.05c-0.09,0.02-0.15,0.04-0.2,0.06L5.44,7.19C5.33,7.22,5.24,7.25,5.16,7.28
		c-0.13,0.03-0.22,0.07-0.3,0.11C4.8,7.42,4.73,7.44,4.66,7.47L4.47,7.54C4.4,7.56,4.35,7.58,4.29,7.61L4.17,7.65L4.11,7.69
		c-0.05,0.02-0.1,0.05-0.15,0.07C3.93,7.78,3.9,7.78,3.87,7.8C3.77,7.83,3.7,7.87,3.63,7.93L3.39,8.07L3.3,8.11v0L3.27,8.13
		l0.16,0.43L0,9.95l5.87-1.09C5.94,8.86,6,8.84,6.04,8.84l0.3-0.02c0.1-0.01,0.21-0.01,0.32-0.02c0.08,0.02,0.18,0.02,0.28,0
		c0.14-0.02,0.19-0.03,0.2-0.03c0.05,0,0.11-0.01,0.18-0.01c0.14,0.02,0.28,0,0.37-0.02c0.02,0,0.05-0.01,0.05-0.01
		C8.18,8.72,8.67,8.7,9.17,8.67c0.05,0,0.12-0.01,0.19-0.02c0.08,0.01,0.16,0,0.25-0.01C9.67,8.64,10.66,8.56,12,8.46v1.37h0
		c-0.01,0-0.02,0-0.03,0c-0.1,0.01-0.19,0.04-0.27,0.08c-0.09,0.01-0.18,0.04-0.28,0.11c-0.02,0.01-0.04,0.01-0.06,0.02
		c-0.01,0-0.01,0-0.02,0.01l-0.09,0l-0.13,0.05c-0.05,0.02-0.12,0.04-0.2,0.08c-0.09,0.02-0.17,0.04-0.25,0.08h-0.04l-0.17,0.06
		c-0.04,0.01-0.08,0.03-0.12,0.04c-0.05,0.02-0.09,0.03-0.12,0.05c-0.03,0.01-0.06,0.01-0.09,0.02c-0.03,0-0.07,0.01-0.11,0.02
		c-0.08,0.02-0.15,0.05-0.22,0.1c-0.08,0.03-0.15,0.06-0.23,0.08l-0.09,0.03c-0.13,0.02-0.23,0.06-0.3,0.09l-0.04,0.01
		c-0.01,0-0.02,0.01-0.04,0.01l-0.17-0.01l-0.15,0.14H8.73l-0.16,0.06C8.54,10.99,8.5,11,8.47,11.01c-0.04,0.01-0.07,0.03-0.1,0.04
		c-0.13,0.03-0.23,0.1-0.29,0.17l-0.1-0.01L7.81,11.5l-0.08,0.08c-0.01,0.01-0.03,0.02-0.04,0.03c-0.11,0.03-0.2,0.09-0.28,0.17
		c-0.04,0.02-0.07,0.04-0.1,0.06c-0.02,0.01-0.05,0.01-0.07,0.02c-0.08,0.01-0.16,0.03-0.23,0.07c-0.02,0.01-0.05,0.01-0.07,0.02
		c-0.1,0.01-0.17,0.04-0.23,0.06l-0.14,0.04c-0.05,0.01-0.1,0.03-0.15,0.04c-0.03,0.01-0.07,0.02-0.12,0.04c-0.02,0-0.04,0-0.06,0
		c-0.04,0-0.07,0.01-0.11,0.02c-0.04,0-0.09,0-0.15,0.02c-0.01,0-0.01,0-0.02,0l-0.1-0.01l-0.35,0.08l-1.81,1.2l0.08,0.05l-0.15,0.1
		L4.28,14c0.09,0.12,0.26,0.24,0.56,0.25c0.02,0,0.03,0,0.05,0l0.05,0.03l0.61,0.01l0.07-0.02c0.04-0.01,0.07-0.01,0.12-0.01
		c0.06,0,0.13,0,0.19,0h0.12l0.26-0.05c0.17,0,0.29-0.03,0.38-0.05h0.01c0.09,0,0.2,0,0.32-0.05h0.02l0.08-0.01
		c0.04-0.01,0.08-0.02,0.11-0.02c0.06-0.01,0.08-0.02,0.12-0.02h0.07l0.23-0.05c0.07-0.01,0.13-0.03,0.19-0.04l0.06-0.01
		c0.02-0.01,0.04-0.01,0.06-0.01c0.02,0,0.05-0.01,0.07-0.02c0.13,0.01,0.22-0.02,0.29-0.04c0.04-0.01,0.07-0.02,0.11-0.03
		l0.06-0.01c0.03-0.01,0.07-0.02,0.1-0.03l0.1,0l0.24-0.07c0.17-0.01,0.3-0.06,0.39-0.12c0.01,0,0.03-0.01,0.04-0.01
		c0.02,0,0.04,0,0.05,0l0.45-0.05l0.01-0.05h0.29l0.04-0.12l0.2-0.03l0.02-0.12c0.06-0.01,0.11-0.04,0.16-0.06l0.3-0.17v-0.03
		l0.05-0.03l0.2-0.07l0.01-0.04l0.26-0.09l0.01-0.13l0.21-0.15l-0.04-0.02l0.11-0.1c0.05-0.02,0.12-0.05,0.22-0.08l0.07-0.02v6.52
		h4.06v-7.61l0.32-0.09l0,0c0.03-0.01,0.06-0.02,0.1-0.03h0.05c0.15-0.01,0.28-0.06,0.37-0.12c0.03-0.01,0.04-0.01,0.05-0.01
		l0.11,0.01l0.11-0.04c0.02-0.01,0.09-0.01,0.12-0.01c0.13-0.01,0.24-0.04,0.33-0.1c0.18-0.03,0.25-0.04,0.38-0.09l0.16-0.06
		c0.07-0.01,0.31-0.03,0.51-0.13c0.04,0,0.08-0.01,0.11-0.01c0.07-0.01,0.13-0.03,0.2-0.05c0.06-0.02,0.07-0.02,0.08-0.02l0.09,0
		l1.03-0.26l0.01-0.01c0.08-0.01,0.19-0.03,0.29-0.08c0.15,0.01,0.27-0.02,0.27-0.02c0.21-0.05,0.42-0.11,0.63-0.16l0.15-0.04
		l0.05-0.04c0.06-0.02,0.12-0.04,0.18-0.07c0.04-0.01,0.07-0.02,0.11-0.03c0.14,0.02,0.27,0,0.39-0.02l0.02-0.01
		c0.02,0,0.05-0.01,0.06-0.01c0.12,0,0.22-0.02,0.29-0.04c0.01,0,0.02-0.01,0.03-0.01c0.1,0,0.19-0.01,0.23-0.02
		c0.59-0.14,1.19-0.27,1.81-0.41c0.03-0.01,0.06-0.02,0.09-0.03c0.05,0,0.1,0.01,0.15,0c0.11-0.01,0.2-0.04,0.29-0.08
		c0.28-0.06,0.55-0.12,0.84-0.17h0.17L27,8.76l0.09-0.05c0,0,0,0,0,0l0.07-0.01c0.04-0.01,0.09-0.02,0.14-0.02
		c0.14-0.02,0.23-0.04,0.29-0.06c0.02,0,0.03-0.01,0.05-0.01c0.01,0,0.01,0,0.04,0c0.13,0,0.3,0,0.53-0.04h0.11
		c0.15,0,0.34,0,0.55-0.08c0.19-0.03,0.38-0.06,0.56-0.09c0.18,0,0.34-0.03,0.49-0.08c0.17,0,0.34-0.03,0.48-0.05l0.1-0.02
		c0.09-0.01,0.15-0.04,0.2-0.05l0.48-0.07c0.09-0.01,0.09-0.02,0.22-0.01c0.07,0,0.17,0,0.25-0.02c0.16-0.02,0.32-0.05,0.47-0.07
		l0.21-0.03h0.03c0.05,0,0.23,0,0.38-0.05c0.04-0.01,0.17-0.03,0.26-0.05l0.13-0.02c0.19-0.03,0.35-0.04,0.49-0.04
		c0.1,0,0.24-0.02,0.31-0.04c0.03-0.01,0.05-0.01,0.08-0.02c0.02-0.01,0.04-0.01,0.08-0.02c0.13-0.02,0.26-0.04,0.37-0.05l0.11-0.02
		h0.04c0.07,0,0.12,0,0.17-0.01c0.13-0.02,0.27-0.03,0.39-0.05c0.06-0.01,0.1-0.01,0.15-0.01c0.07,0,0.17-0.01,0.28-0.03
		c0.03-0.01,0.07-0.01,0.11-0.01c0.04,0,0.07,0,0.11,0c0.1,0,0.22-0.01,0.35-0.03c0.06-0.01,0.09-0.01,0.13-0.01h0.04
		c0.27-0.01,0.32-0.01,0.56-0.08l0.05-0.01c0.18-0.02,0.36-0.05,0.54-0.07l0.04-0.01c0.1,0,0.19-0.01,0.28-0.02
		c0.04,0,0.08-0.01,0.1-0.01c0.11,0,0.21-0.01,0.3-0.02c0.06-0.01,0.14-0.02,0.17-0.02c0.07,0,0.16-0.01,0.19-0.01
		c0.11-0.01,0.2-0.02,0.27-0.02c0.11,0,0.22,0,0.34,0h0.15l0.58-0.06l1.32-0.01l0.23-0.01c0.08-0.01,0.12-0.01,0.16-0.01
		c0.17,0.04,0.25,0.03,0.5,0.01l0.02,0.06l0.57-0.05c0.11-0.01,0.2-0.02,0.29-0.02c0.06,0,0.12,0,0.18,0l0.21,0.81
		c-0.11,0.05-0.27,0.08-0.41,0.11c-0.13,0.03-0.25,0.06-0.34,0.1c-0.06,0.03-0.17,0.05-0.25,0.04c-0.08,0-0.18,0.02-0.25,0.06
		C42.05,8.31,42,8.32,41.93,8.34c-0.13,0.02-0.2,0.01-0.35,0.05c-0.16,0.04-0.32,0.08-0.46,0.12c-0.05,0.01-0.09,0.04-0.13,0.06
		c-0.11,0.05-0.11,0.05-0.32,0.06C40.33,8.7,39.98,8.8,39.64,8.9c-0.06,0.02-0.09,0.04-0.12,0.06C39.48,9,39.4,9.02,39.31,9.02
		c-0.13,0-0.2,0.03-0.27,0.08C39,9.14,38.92,9.16,38.84,9.16c-0.02,0-0.05,0-0.08,0c-0.11,0.03-0.22,0.06-0.32,0.1
		c-0.1,0.03-0.1,0.03-0.2-0.01c-0.02-0.01-0.08,0-0.12,0.02c-0.05,0.03-0.05,0.07-0.16,0.09c-0.12,0.03-0.17,0.08-0.23,0.12
		c-0.01,0.01-0.06,0.02-0.07,0.02c-0.13,0-0.25,0.03-0.38,0.08c-0.25,0.09-0.5,0.16-0.74,0.25c-0.08,0.03-0.15,0.03-0.22,0.03
		c-0.08,0.01-0.13,0.04-0.16,0.08C36.1,10,36.08,10,35.86,10c-0.11,0.04-0.24,0.1-0.38,0.14c-0.08,0.03-0.09,0.06-0.13,0.09
		c-0.02,0.02-0.08,0.03-0.12,0.04c-0.05,0.01-0.1,0-0.14,0.01c-0.1,0.02-0.09,0.06-0.11,0.08c-0.31,0.11-0.59,0.22-0.88,0.33
		c-0.07,0-0.17,0-0.26,0c-0.24,0.09-0.46,0.18-0.69,0.27c-0.09,0-0.19-0.01-0.23,0.05c-0.02,0.03-0.05,0.06-0.11,0.09
		c-0.34,0.13-0.66,0.27-0.97,0.39c-0.18,0-0.18,0-0.22,0.05c-0.01,0.01,0,0.03-0.01,0.03c-0.03,0.02-0.06,0.03-0.1,0.04
		c-0.04,0.01-0.11,0-0.13,0.01c-0.13,0.07-0.38,0.1-0.38,0.22c-0.05,0.03-0.14,0.01-0.18,0.03c-0.13,0.04-0.25,0.1-0.36,0.14
		c-0.03,0.01-0.01,0.04-0.02,0.06c-0.02,0.02-0.06,0.04-0.09,0.04c-0.09,0-0.18,0-0.25,0c-0.1,0.04-0.18,0.08-0.26,0.11
		c-0.08,0.03-0.16,0.07-0.24,0.1c-0.08,0.03-0.15,0.06-0.15,0.1c0,0.04-0.17,0.01-0.18,0.05c-0.01,0.06-0.04,0.1-0.28,0.08
		c-0.03,0-0.04,0.02-0.02,0.03c0.08,0.04,0.17,0.09,0.26,0.13c0.06,0.03,0.07,0.04-0.03,0.04c-0.11,0-0.07,0.03-0.09,0.05
		c-0.06-0.01-0.11-0.03-0.17-0.04c-0.02-0.01-0.06-0.01-0.07-0.01c-0.03,0.01-0.01,0.02,0.03,0.04c0.18,0.07,0.2,0.11,0.16,0.14
		c-0.02,0.02-0.15,0-0.13,0.03c0.01,0.02,0,0.04-0.01,0.06c-0.01,0.03-0.01,0.06-0.02,0.09c0,0-0.04,0-0.06,0
		c-0.11,0,0.02,0.05-0.13,0.04c-0.03,0-0.04,0.01-0.04,0.02c0,0.03,0.01,0.07,0.01,0.1c0,0-0.03,0-0.05,0
		c-0.09-0.01-0.08,0.01-0.06,0.03c0.03,0.03-0.16-0.01-0.12,0.02c0.02,0.01,0.02,0.02-0.01,0.02c-0.04,0-0.12-0.01-0.1,0.01
		c0.04,0.03-0.11,0.01-0.1,0.02c0.01,0.02-0.03,0.03-0.15,0.03c-0.04,0-0.08,0-0.08,0c0,0.02-0.01,0.05,0.04,0.08
		c0.04,0.02,0.17,0.06,0.14,0.08c0.08,0.02,0.16,0.03,0.25,0.05c0.01,0.01,0.03,0.02,0.02,0.02c-0.01,0.01,0.08,0.03,0.15,0.05
		c0.08,0.02,0.19,0.03,0.27,0.04c0.08,0.02,0.13,0.03,0.25,0.05c0.06,0.01,0.13,0.02,0.18,0.03c0.11,0.02,0.2,0.04,0.3,0.07
		c0.57,0.12,1.18,0.23,1.82,0.31c0.17,0.02,0.34,0.04,0.51,0.06c0.03,0,0.06,0.01,0.09,0.01c0.18,0.01,0.36,0.02,0.57,0.04
		c0.13,0.01,0.28,0.03,0.42,0.04c0.1,0.01,0.2,0.01,0.31,0.02c0.27,0.01,0.32,0.01,0.46,0.01c0.06,0,0.14,0,0.27,0.01
		c0.15,0.01,0.31,0.01,0.49,0.01c0.08,0,0.2,0,0.25,0c0.04,0-0.04-0.01-0.02-0.01c0.02,0,0.16,0,0.11,0c-0.03,0-0.06-0.01,0.03-0.01
		c0.17,0,0.32,0,0.47,0c-0.02,0-0.02,0-0.04-0.01c-0.06-0.01-0.07-0.01,0.06-0.01c-0.04-0.01-0.07-0.01,0.07-0.01
		c-0.02,0-0.04-0.01-0.05-0.01c0-0.01-0.15-0.02-0.02-0.02c0.13,0-0.04-0.02-0.03-0.02c0.01,0,0.15,0,0.1-0.01
		c-0.05-0.01-0.05-0.01-0.07-0.02c0,0,0.03,0,0.05,0c0.13,0,0.05-0.01-0.07-0.02c-0.12-0.01-0.11-0.02-0.01-0.01
		c0.07,0,0.13,0,0.2,0c-0.03-0.01-0.06-0.02-0.07-0.03c0,0,0.04,0,0.08,0c0.13,0,0.19,0,0.14-0.01c-0.05-0.02-0.07-0.03-0.08-0.04
		c0,0,0.08,0,0.14,0c-0.05-0.03-0.09-0.05-0.13-0.08c-0.01-0.01,0.04-0.01,0.09-0.01c0.08,0-0.05-0.03,0.13-0.02
		c0-0.01,0-0.02,0-0.03c0-0.01-0.04-0.02-0.01-0.03c0.03,0,0.14,0.01,0.12-0.01c-0.02-0.02-0.05-0.03-0.02-0.04
		c0.03-0.01,0.16-0.01,0.13-0.03c-0.01-0.01,0.11,0,0.12-0.01c0.01-0.01,0-0.03,0.12-0.02c0.03,0,0.01-0.01-0.01-0.02
		c-0.02-0.01-0.08-0.02-0.11-0.03c-0.01-0.01-0.02-0.01,0-0.01c0.11,0,0.15,0,0.14-0.02c-0.01-0.02,0.21,0,0.14-0.03
		c-0.01,0,0-0.01,0.02-0.01c0.17,0.01,0.06-0.03,0.17-0.03c0.17,0,0.1-0.04,0.12-0.06c0.01-0.01,0.1-0.01,0.13-0.01
		s0-0.03,0.05-0.04c0.04-0.01,0.14,0,0.21,0c0.11,0,0.12,0,0.05-0.03c-0.05-0.02-0.1-0.04-0.06-0.05c0.18,0.01,0.15-0.02,0.17-0.04
		c0.02-0.02,0.02-0.04,0.14-0.04c0.11,0,0.03-0.06,0.21-0.04c0.02-0.01,0.05-0.03,0.07-0.04c0.03-0.03,0.05-0.07,0.07-0.1
		c0.14,0,0.26,0.01,0.34,0c0.05,0,0.06-0.03,0.09-0.04c0.18,0.02,0.12-0.05,0.23-0.04c0.19,0,0.15-0.05,0.22-0.08
		c0.01,0,0.02-0.01,0.03-0.02C38.8,13.01,38.79,13,38.9,13c0.13,0,0.08-0.05,0.17-0.05c0.17,0.01,0.16-0.04,0.26-0.05
		c0.06-0.01,0.16,0,0.17-0.03c0.02-0.04,0.17-0.02,0.23-0.04c0.04-0.01,0.03-0.03-0.01-0.05c-0.05-0.04-0.01-0.05,0.08-0.05
		c0.06,0,0.1,0,0.13-0.01c0.13-0.04,0.13-0.04,0.24-0.04c0.03,0,0.06,0,0.09,0c0.07,0.01,0.1,0,0.13-0.02
		c0.1-0.04,0.11-0.04,0.34-0.04c0.13,0,0.14,0,0.12-0.05c-0.02-0.05-0.01-0.08,0.14-0.07c0.06,0,0.1-0.01,0.13-0.03
		c0.04-0.02,0.11-0.04,0.14-0.07c0.05-0.04,0.21-0.02,0.27-0.04c0.07-0.03,0.13-0.06,0.27-0.05c0.09-0.04,0.17-0.07,0.26-0.11
		c0.07-0.03,0.14-0.06,0.21-0.09c0.22,0,0.43,0,0.64,0c0.1,0,0.14-0.01,0.13-0.06c-0.01-0.04,0.02-0.06,0.11-0.07
		c0.05-0.01,0.14,0,0.16-0.01c0.09-0.05,0.22-0.07,0.38-0.05c0.1,0.01,0.16-0.01,0.22-0.04c0.11-0.04,0.16-0.08,0.17-0.14
		c0-0.01,0.04-0.02,0.06-0.02c0.06,0,0.11,0,0.16-0.01l1.79,7.04h4.25l1.59-4.39c0.09,0,0.17,0,0.26,0c0.09,0,0.13,0,0.14-0.01
		c0.01-0.01,0.04-0.01,0.06-0.02c0.1,0,0.21,0,0.31,0c0.04-0.01,0.08-0.02,0.13-0.04c0.11,0,0.22,0,0.32,0
		c0.08-0.03,0.17-0.05,0.27-0.09c0.03,0,0.05,0,0.08,0c0.07,0,0.1,0,0.12-0.01c0.02-0.01,0.05-0.02,0.08-0.03
		c0.05-0.01,0.11-0.03,0.17-0.04c0.14,0,0.16-0.01,0.22-0.02c0.04-0.01,0.15,0,0.2-0.01c0.11-0.02,0.08-0.06,0.35-0.06
		c0.06-0.02,0.12-0.04,0.19-0.06C54.86,14,54.9,14,54.97,14c0.1,0,0.14-0.01,0.09-0.03c-0.07-0.03,0.02-0.04,0.15-0.04
		c0.12,0,0.12-0.01,0.08-0.04c-0.02-0.01-0.04-0.03,0.02-0.03c0.09-0.01,0.24,0,0.27-0.03c0.03-0.03,0.22-0.01,0.27-0.03
		c0.05-0.02,0.12-0.04,0.18-0.06c0.06-0.02,0.13-0.04,0.2-0.06c0.29,0,0.31-0.07,0.47-0.1c0.05-0.01,0.02-0.03,0.02-0.04
		c-0.01-0.04,0.01-0.04,0.13-0.04c0.16,0,0.32,0,0.47,0c0.04,0,0.07-0.02,0.08-0.03c0.01-0.01-0.01-0.03,0-0.05
		c0-0.01,0.03-0.02,0.05-0.02c0.2,0.01,0.28-0.02,0.35-0.05c0.01,0,0.02,0,0.02-0.01l1.96,5.43h4.25l1.11-4.36c0.35,0,0.69,0,1.04,0
		c0.03,0,0.07,0,0.11,0.01c0.04,0,0.08,0,0.14,0c0.1,0,0.21,0,0.29,0c0.05,0,0.1-0.01,0.19-0.01c0.14,0,0.25,0,0.35,0.01
		c0.05,0,0.14,0,0.21,0c0.02,0,0.04,0,0.06,0c0.04,0,0.08,0,0.11,0c0.07,0,0.15,0.01,0.26,0.01c0.15,0,0.25,0,0.34-0.01
		c0.16,0.01,0.16,0.01,0.32,0.01c0.16,0,0.31,0,0.47,0c0.1-0.01,0.2-0.01,0.35-0.01c0.12,0,0.19,0,0.25,0.01c0.01,0,0.04,0,0.05,0
		c0.2,0,0.21,0,0.29,0c0.12,0,0.25,0,0.38,0c0.12,0,0.12,0,0.44-0.01c0.04,0,0.17,0,0.2,0c0.03,0,0.06,0,0.09,0
		c0.21,0,0.42,0,0.63,0c0.03,0,0.05,0,0.08,0c0.11,0,0.12,0,0.17,0c0.08,0.01,0.29,0,0.32,0.01c0.08,0,0.14,0,0.2-0.01
		c0.11,0,0.21,0,0.32,0c0.16,0,0.23,0,0.27,0.01c0.07,0,0.14,0,0.22-0.01c0.06,0,0.06,0,0.27,0c0.19,0,0.37,0,0.53,0
		c0.18,0,0.18,0,0.3,0c0.25,0,0.51,0,0.77,0c0.16,0,0.22,0,0.25,0.01c0.08,0,0.16,0,0.24-0.01c0.01,0,0.03,0,0.03,0
		c0.02,0,0.12,0,0.23,0c0.08,0,0.15,0,0.24,0c0.08,0,0.17-0.01,0.25-0.01c0.07,0,0.11,0,0.13,0c0.02,0-0.01,0-0.03,0.01
		c-0.05,0.01-0.04,0.01,0.07,0c0.06,0,0.11,0,0.17-0.01c0.42,0,0.84,0,1.26,0c0.02,0.01,0.07,0.01,0.22,0.01
		c0.12,0,0.22,0,0.34-0.01c0.18,0,0.34,0,0.4,0c0.01,0,0,0,0.02,0c0.19,0,0.42,0,0.67,0c0.26-0.01,0.4-0.01,0.58-0.01
		c0.21,0,0.41,0,0.63,0c0.13,0,0.11,0,0.14,0.01c0.55,0,1.11,0,1.68,0c0.15,0,0.19,0,0.18,0.01c0.18,0,0.32-0.01,0.46-0.01
		c1.17,0,2.34,0,3.49-0.01c0,0-0.01,0-0.01,0c0,0.01,0.05,0,0.29,0c0.04,0,0.08,0,0.11,0c0.02,0,0.06,0,0.06,0
		c-0.09,0.01,0.19,0,0.32,0c0.06,0,0.14,0,0.23,0c0.26,0.82,0.71,1.56,1.35,2.2C90.7,18.18,93.2,19,96.38,19
		c4.73,0,7.86-1.78,8.5-4.72c0.05-0.01,0.09-0.01,0.14-0.02c0.25-0.02,0.08,0,0.13,0c0.13,0,0.27,0,0.43,0
		c0.11,0,0.07,0.01,0.07,0.02c0.27,0,0.56-0.01,0.84-0.01c0.11,0,0.24-0.02,0.35-0.02c0,0.01,0,0.01,0,0.02
		c0.07-0.01,0.13-0.01,0.2-0.02c0.08-0.01,0.21-0.01,0.19,0c-0.09,0.03,0.22,0.01,0.12,0.04c0.04,0,0.09,0.01,0.19,0
		c0.06-0.01,0.13-0.01,0.19-0.02c0.01,0,0.01,0.01,0.02,0.01c0.01,0.01,0.09,0.01,0.22,0c0.06-0.01,0.12-0.01,0.17-0.02
		c0,0,0,0.01,0,0.01c0.01,0.02,0.04,0.02,0.25,0c0.14-0.01,0.22-0.01,0.3-0.01c0.07,0,0.1,0,0.11,0.01c0,0.01,0.01,0.01,0.15,0
		c0.03,0,0.06-0.01,0.1-0.01c0.01,0.01,0.01,0.02,0.02,0.02c0.22,0,0.43,0,0.65,0c0.01,0.01,0.02,0.02,0.03,0.02
		c0.11-0.01,0.12-0.01,0.25,0c0.1,0.01,0.25,0,0.37,0c0.14,0,0.35-0.01,0.33,0.02c0.08-0.01,0.15-0.01,0.26-0.02
		c0.39,0,0.81,0,1.23-0.01c0.11,0,0.09,0.02,0.13,0.03c0.09,0,0.17,0,0.26,0c0.14-0.01,0.16,0.01,0.2,0.03
		c0.07-0.01,0.14-0.02,0.21-0.03c0.04,0.02,0.08,0.04,0.13,0.06c0.21,0,0.43,0,0.66,0c0.04,0,0.1-0.01,0.13-0.02
		c0.05-0.01,0.09-0.01,0.14-0.01c0.16-0.01,0.17-0.01,0.21-0.04c0.04-0.03,0.1-0.05,0.22-0.07c0.06-0.03,0.12-0.05,0.23-0.07
		c0.04-0.03,0.12-0.06,0.22-0.08c0.02-0.03,0.11-0.06,0.21-0.08c0.03-0.03,0.07-0.06,0.1-0.09c0.03-0.03,0.03-0.03,0.12-0.04
		c0.09-0.01,0.14-0.01,0.16-0.05c0.02-0.02,0.06-0.04,0.12-0.04s0.1-0.01,0.13-0.03c0.01-0.01,0.01-0.01,0.02-0.02
		c0.03-0.04,0.07-0.08,0.08-0.12c0.01-0.05,0.12-0.07,0.15-0.11c0.05-0.05,0.07-0.11,0.1-0.16c0.02-0.05,0.07-0.11,0.07-0.16
		c-0.08-0.06-0.14-0.11-0.2-0.16L116.01,13.05z M93.02,14.38c0.09,0,0.19,0,0.27,0c0.1,0,0.26-0.01,0.41-0.01
		c-0.01,0-0.02,0.01-0.03,0.01c0.18,0,0.34,0,0.55-0.01c0.15,0,0.11,0,0.09,0.01c0.23,0,0.46-0.01,0.69-0.01c0.05,0,0.08,0,0.12,0
		c0.11,0,0.22-0.01,0.29-0.01c0.07,0,0.22,0,0.16,0c-0.02,0-0.03,0.01,0,0c0.19,0,0.26,0,0.66-0.02c0.07,0,0,0.01,0,0.01
		c0.23,0,0.47-0.01,0.73-0.01c0.12,0,0.03,0.01,0.03,0.01c0.43-0.02,0.43-0.02,0.42-0.01c0,0,0.06,0,0.27-0.01c0.11,0,0.16,0,0.15,0
		c-0.02,0,0.04,0,0.16,0c0.31-0.02,0.31-0.02,0.45-0.02c0.13,0,0.28,0,0.4-0.01c0.03,0-0.01,0.01-0.04,0.01
		c-0.18,0.02-0.18,0.02-0.04,0.02c0.18,0,0.36,0,0.54-0.01c0.27,0,0.52,0,0.81-0.01c0.14,0,0.11,0.01,0.09,0.01
		c0.08,0,0.15-0.01,0.23-0.01c0.08,0,0.09,0,0.06,0c-0.02,0-0.03,0.01,0,0.01c0,0,0.01,0,0.01,0c-0.73,0.89-2.4,1.23-3.99,1.23
		c-1.48,0-3.15-0.24-4.09-1.16c0.07,0,0.14,0,0.21,0c0.05,0,0.14-0.01,0.21-0.01c0.18-0.01,0.28-0.01,0.36-0.01
		c0.06,0,0.04,0-0.08,0.01C92.98,14.38,92.96,14.38,93.02,14.38L93.02,14.38z M61.78,9.18c-0.08-0.02-0.08-0.04,0.01-0.05
		c0.06-0.01,0.12-0.01,0.18-0.01c0.1-0.01,0.17-0.03,0.16-0.08c-0.01-0.03,0.03-0.04,0.09-0.06c0.08-0.02,0.15-0.05,0.14-0.09
		c0-0.01,0-0.02,0.01-0.03l-0.13,0.51c-0.02,0.02-0.08,0.03-0.18,0.03c-0.16,0-0.33,0-0.49,0c-0.03,0-0.05-0.01-0.07-0.02
		c-0.01-0.01-0.02-0.02,0-0.03c0.12-0.05,0.25-0.09,0.37-0.13C61.85,9.21,61.83,9.19,61.78,9.18L61.78,9.18z M48.62,12.3l-0.2-0.93
		l-0.1-0.39c0.03,0,0.05-0.01,0.09,0c0.15,0.01,0.21-0.07,0.31-0.07c0.19,0,0.3-0.04,0.4-0.09c0.01,0,0.02-0.01,0.03-0.01
		L48.62,12.3z M50.05,8.31c-0.1,0-0.2,0-0.3,0c-0.06,0-0.12,0-0.18,0.02c-0.21,0.07-0.36,0.04-0.56,0.05
		c-0.09,0.03-0.22,0.06-0.32,0.09c-0.15,0.06-0.3,0.02-0.44,0.07c-0.17,0.06-0.36,0.03-0.53,0.1l0,0l-0.14-0.57
		c0.15-0.09,0.3-0.17,0.49-0.27c-0.05-0.03-0.1-0.06-0.14-0.09c0.34-0.17,0.68-0.31,1.04-0.44c-0.06-0.02-0.03-0.05,0.1-0.09
		c0.46,0,0.93,0,1.39,0L50.05,8.31L50.05,8.31z M47.36,7.21l0-0.01c0.03,0,0.06,0,0.09,0C47.41,7.2,47.39,7.2,47.36,7.21L47.36,7.21
		z M70.09,6.62l0.03-0.13l0-0.01l0.03,0.11C70.13,6.6,70.11,6.61,70.09,6.62L70.09,6.62z M67.37,5.84L67.37,5.84l-0.01-0.06
		l0.01-0.04L67.37,5.84L67.37,5.84z M16.05,8.71V8.16c1.58-0.12,2.64-0.21,3.37-0.27L18.96,8c-0.06,0.02-0.11,0.03-0.17,0.04
		c-0.15,0.03-0.25,0.07-0.3,0.1l-0.02,0.01c-0.1,0.02-0.2,0.05-0.27,0.07l-0.04,0c-0.06,0-0.15,0.01-0.26,0.04
		c-0.12,0.03-0.24,0.07-0.36,0.1l-0.11,0.03c-0.05,0-0.1,0-0.14,0.01c-0.11,0.02-0.19,0.05-0.25,0.08c-0.06,0-0.13,0.01-0.21,0.04
		c-0.05,0.02-0.16,0.05-0.19,0.05l0,0c-0.16-0.02-0.32,0.03-0.39,0.07c-0.03,0.01-0.06,0.03-0.08,0.04
		C16.12,8.69,16.09,8.71,16.05,8.71L16.05,8.71z M7.07,12.46l0.03,0.09l0,0L7.07,12.46L7.07,12.46L7.07,12.46z M6.96,12.11
		c0,0-0.01,0.02-0.02,0.02l-0.04-0.1c0,0,0.02-0.01,0.02-0.02L6.96,12.11L6.96,12.11z M6.92,11.98L6.92,12c0,0-0.02,0.01-0.02,0.02
		l-0.01-0.03C6.89,11.99,6.9,11.98,6.92,11.98C6.91,11.98,6.91,11.98,6.92,11.98L6.92,11.98z M6.9,11.98c0,0-0.01,0-0.01,0.01l0,0
		C6.89,11.99,6.9,11.98,6.9,11.98z M29.94,8.33C29.94,8.33,29.93,8.33,29.94,8.33l0.01-0.01L29.94,8.33L29.94,8.33z M55.56,7.52
		c-0.06,0.01-0.09,0.01-0.1-0.01c-0.01-0.02-0.04-0.03-0.09-0.02c-0.12,0.03-0.22,0.04-0.35,0.05c-0.13,0.01-0.29,0.07-0.43,0.05
		c-0.07,0.01-0.13,0.03-0.2,0.04l0.16-0.45c0.34,0,0.68,0,1.02,0L55.7,7.5C55.67,7.51,55.62,7.52,55.56,7.52L55.56,7.52z
		 M72.41,13.63c0,0-0.04-0.01-0.06-0.01c-0.02-0.01,0.01-0.02,0.08-0.03c0.01,0,0.04,0.01,0.05,0.02
		C72.51,13.61,72.48,13.63,72.41,13.63L72.41,13.63z M86.2,14.13c-0.03,0-0.08,0.01-0.09,0.01c-0.04-0.01-0.03-0.01,0.01-0.02
		c0.03,0,0.08-0.01,0.09-0.01C86.25,14.11,86.24,14.12,86.2,14.13z M87.62,13.58c-0.15,0.01-0.3,0-0.45,0.01
		c-0.15,0.01-0.16-0.03-0.22-0.04c-0.03,0-0.06,0.01-0.08,0.01c-0.06,0.01-0.12,0.02-0.18,0.04c-0.14-0.06-0.15-0.06-0.48-0.01
		c-0.06,0.01-0.1,0.01-0.11-0.01c0-0.01,0.02-0.02,0.03-0.02c0.05-0.05-0.07-0.07-0.24-0.04c-0.11,0.02-0.22,0.05-0.27,0.01
		c-0.04-0.03-0.2-0.01-0.31-0.02c-0.1-0.01-0.18,0.02-0.27,0.03c-0.13,0.02-0.24,0.02-0.31,0c-0.03-0.01-0.06-0.02-0.09-0.03
		c-0.06,0.01-0.11,0.02-0.18,0.04c-0.1,0.02-0.19,0.02-0.25,0c-0.04-0.01-0.04-0.03-0.09-0.03c-0.25-0.01-0.49-0.03-0.79,0.04
		c-0.16,0-0.31,0.02-0.47,0.06c-0.07-0.03-0.13-0.06-0.2-0.09c-0.06-0.02-0.16-0.02-0.32,0.01c-0.09,0.02-0.17,0.03-0.27,0.03
		c-0.13,0-0.13,0-0.35-0.04c-0.07-0.01-0.15-0.01-0.25,0c-0.21,0.03-0.21,0.03-0.32-0.01c-0.09,0-0.18,0-0.27,0
		c-0.47,0-0.94,0.01-1.4,0c-0.18,0-0.3,0.02-0.43,0.05c-0.08-0.02-0.1-0.05-0.26-0.05c-0.28,0-0.56,0-0.82,0
		c-0.16,0.03-0.29,0.06-0.43,0.09c-0.04,0.01-0.09,0-0.1-0.02c-0.02-0.07-0.02-0.07-0.21-0.07c-0.28,0-0.57,0-0.85,0
		c-0.11,0-0.18,0.02-0.26,0.03c-0.12,0.02-0.24,0.02-0.32,0c-0.04-0.01-0.08-0.02-0.11-0.03c-0.12,0.03-0.25,0.05-0.43,0.05
		c-0.14,0-0.22-0.02-0.29-0.04c-0.01,0-0.04,0-0.07,0c-0.25,0.02-0.25,0.02-0.34-0.01c-0.17,0-0.37,0-0.55,0
		c-0.18,0-0.31,0.02-0.43,0.05c-0.07-0.04-0.18-0.05-0.36-0.05c-1.85,0-3.7,0.01-5.55,0.01c-0.06-0.01-0.1-0.03-0.15-0.04
		c-0.02,0-0.06-0.01-0.07-0.01c-0.05,0.01-0.09,0.02-0.14,0.03c-0.04,0.01-0.09,0-0.13-0.02c-0.05-0.02-0.1-0.02-0.13-0.01
		c-0.13,0.05-0.34,0.04-0.52,0.04c-0.05,0-0.1-0.02-0.14-0.03c-0.05-0.02-0.1-0.02-0.17-0.01c-0.01,0.02-0.03,0.02-0.05,0.03
		c-0.02,0-0.05,0.01-0.06,0.01c-0.07-0.01-0.08-0.02-0.04-0.03c0.04-0.01,0.09-0.02,0.15-0.01c0,0,0,0,0,0
		c0.01-0.03-0.01-0.04-0.08-0.05c-0.24-0.01-0.49-0.01-0.73-0.01l0.52-2.02c0.11-0.04,0.2-0.07,0.31-0.11
		c0.18,0,0.31-0.03,0.42-0.08c0.2,0.02,0.32-0.03,0.42-0.08c0.14-0.07,0.33-0.08,0.54-0.07c0.12,0,0.16-0.02,0.17-0.07
		c0-0.03,0-0.05,0.07-0.07c0.09-0.01,0.2-0.01,0.27-0.03c0.11-0.03,0.19-0.06,0.34-0.07c0.15-0.01,0.22-0.09,0.42-0.07
		c0.22-0.05,0.31-0.17,0.64-0.16c0.1-0.04,0.2-0.07,0.28-0.11c0.09-0.05,0.25-0.03,0.34-0.05c0.13-0.04,0.24-0.09,0.36-0.13
		c0.13,0,0.26,0,0.39,0c0.15-0.05,0.29-0.1,0.43-0.15c0.29,0.01,0.36-0.09,0.54-0.14c0.05-0.01,0.12-0.01,0.18-0.01
		c0.15-0.02,0.21-0.1,0.41-0.08c0.09-0.03,0.19-0.07,0.28-0.1c0.05-0.02,0.09-0.04,0.12-0.05c0.14,0,0.28,0,0.4,0
		c0.08-0.03,0.14-0.05,0.21-0.08c0.23,0.03,0.29-0.08,0.49-0.08c0.2,0,0.27-0.09,0.4-0.14c0.07-0.02,0.13-0.05,0.2-0.08
		c0.06,0,0.12,0,0.18,0c0.14,0.01,0.25,0,0.32-0.05c0.06-0.04,0.2-0.01,0.25-0.03c0.11-0.04,0.21-0.08,0.38-0.08
		c0.08-0.06,0.23-0.06,0.37-0.08c0.1-0.02,0.17-0.06,0.24-0.1c0.04-0.02,0.08-0.04,0.15-0.03c0.11,0.01,0.17-0.02,0.22-0.05
		C76.71,8.98,76.82,9,76.9,8.99c0.1-0.02,0.11-0.08,0.27-0.07c0.03,0,0.07,0,0.09,0c0.06-0.02,0.12-0.05,0.16-0.08
		c0.08-0.05,0.19-0.07,0.37-0.06c0.06,0,0.13,0,0.17-0.01c0.08-0.03,0.13-0.07,0.28-0.06c0.12,0.01,0.28,0.02,0.37,0
		c0.12-0.02,0.2-0.07,0.27-0.11c0.06-0.03,0.18-0.01,0.23-0.03c0.1-0.03,0.16-0.08,0.34-0.07c0.06-0.05,0.17-0.06,0.32-0.07
		c0.07-0.01,0.11-0.04,0.14-0.07c0.06-0.07,0.26-0.05,0.43-0.05c0.04,0,0.13,0.02,0.15,0.04c0.06,0.04,0.08,0.09,0.11,0.12
		c-0.07,0.04-0.13,0.07-0.19,0.1c-0.03,0.02-0.07,0.04-0.05,0.05c0.05,0.06-0.03,0.08-0.09,0.11c0.04,0.06-0.01,0.1-0.1,0.15
		c-0.04,0.02,0.07,0.07-0.01,0.09c-0.1,0.03-0.1,0.07-0.06,0.12c0.04,0.04,0.03,0.04-0.07,0.12C79.99,9.25,80,9.26,80.08,9.28
		c0.05,0.01,0.13,0.04,0.13,0.06c0,0.08,0.31,0.11,0.29,0.19c0.12,0.05,0.26,0.09,0.37,0.14c0.12,0.06,0.29,0.05,0.43,0.08
		c0.15,0.03,0.27,0.09,0.41,0.13c0.15,0,0.31,0,0.47,0c0.17,0,0.21,0.04,0.25,0.09c0.04,0.05,0.08,0.06,0.21,0.06
		c0.16,0,0.32-0.01,0.48,0c0.08,0.01,0.16,0.05,0.24,0.07c0.14-0.01,0.24,0.02,0.35,0.06c0.04,0.01,0.12,0.02,0.18,0.02
		c0.13,0,0.26,0,0.38,0c0.05,0,0.12,0.02,0.16,0.04c0.08,0.03,0.16,0.04,0.26,0.04c0.09,0,0.2-0.02,0.27,0.02
		c0.13,0.06,0.28,0.06,0.44,0.06c0.16,0,0.17,0,0.25,0.09c0.07,0.07,0.23,0.09,0.36,0.04c0.02-0.01,0.04-0.02,0.06-0.03
		c0.09-0.04,0.2-0.03,0.32,0c0.08,0.02,0.14,0.05,0.25,0.05c0.12,0,0.25,0,0.38,0c0.07,0,0.11,0.01,0.17,0.03
		c0.07,0.03,0.15,0.05,0.25,0.04c0.09,0,0.18,0.01,0.27,0.01c0.12,0.06,0.26,0.07,0.42,0.06c0.1-0.01,0.18,0.01,0.25,0.04
		c0.1,0.04,0.2,0.07,0.29,0.11c0.04-0.02,0.08-0.03,0.12-0.05c0.09-0.04,0.2-0.03,0.32,0c0.08,0.02,0.14,0.05,0.25,0.05
		c0.18,0,0.37,0,0.56,0c0.06,0,0.11,0.01,0.16,0.03c0.13,0.06,0.36,0.03,0.47,0.1c0.09,0,0.18,0.01,0.27,0.01
		c0.06,0,0.13,0,0.17,0.02c0.1,0.03,0.18,0.06,0.32,0.06c0.18-0.01,0.36,0,0.55,0c0.02,0,0.06,0.01,0.07,0.02
		c0.11,0.06,0.26,0.06,0.41,0.05c0.07,0,0.11,0,0.16,0.02c0.06,0.03,0.12,0.06,0.23,0.05c0.15-0.01,0.29-0.01,0.39,0.05
		c0.03,0.02,0.09,0.02,0.15,0.02c0.11,0,0.22,0,0.33,0c0.06,0,0.1,0.01,0.14,0.03c0.06,0.03,0.13,0.04,0.22,0.04
		c0.08,0,0.16,0.01,0.24,0.01c0.09,0.06,0.22,0.07,0.36,0.06c0.16-0.01,0.33-0.01,0.44,0.06c0.11,0,0.23,0.02,0.32,0
		c0.22-0.04,0.3,0.11,0.51,0.07c0.01,0,0.04,0.01,0.06,0.02c0.06,0.02,0.1,0.05,0.2,0.05c0.19-0.01,0.37,0,0.56-0.01
		c0.08,0.05,0.2,0.07,0.33,0.07c0.09,0.05,0.2,0.07,0.34,0.06c0.08-0.01,0.15,0,0.2,0.03c0.05,0.03,0.13,0.03,0.21,0.03
		c0.08,0,0.16-0.01,0.22,0.01c0.07,0.03,0.15,0.06,0.27,0.05c0.05,0,0.11,0,0.16,0c0.15-0.01,0.24,0.02,0.32,0.07
		c0.13,0,0.26,0,0.39-0.01c0.06,0,0.1,0,0.13,0.02c0.06,0.04,0.16,0.05,0.26,0.04c0.09,0.07,0.24,0.06,0.4,0.06
		c0.06,0,0.11,0,0.17,0c0.59,0.32,0.85,0.74,0.85,1.31c0,0.05-0.01,0.1-0.01,0.14c-0.02,0-0.05-0.01-0.09,0
		c-0.12,0.01-0.31,0.06-0.42,0.05c-0.02,0-0.12,0.02-0.17,0.03c-0.09,0.02-0.14,0.02-0.12,0.01c0.06-0.04-0.21-0.01-0.17-0.05
		c0.02-0.01-0.02-0.01-0.08-0.01c-0.12,0.01-0.24,0.01-0.35,0.01c-0.07,0.01-0.13,0.02-0.2,0.04c-0.07,0.01-0.09,0.01-0.08-0.01
		c0.01-0.02-0.02-0.02-0.05-0.02c-0.21,0.05-0.26,0.04-0.25,0c-0.16,0-0.32,0-0.5,0.01c-0.12,0-0.09-0.02-0.12-0.04
		c-0.14,0-0.29,0.01-0.48,0.01c-0.14,0.03-0.32,0.07-0.45,0.09c-0.34,0.01-0.64,0.01-0.93,0.02c-0.02-0.03-0.05-0.05-0.08-0.08
		c-0.61,0.01-1.25,0.02-1.89,0.04c-0.12,0-0.12-0.02-0.16-0.04c-0.22,0-0.46,0.01-0.69,0.01c-0.13,0-0.23,0.03-0.35,0.05
		c-0.44,0.01-0.9,0.02-1.36,0.03c-0.11-0.27-0.17-0.57-0.18-0.92l-0.03-1.09h-4.07l-0.01,1.11c0,0.31,0.02,0.62,0.07,0.92
		c0,0,0,0,0,0L87.62,13.58z M108.06,13.27c0.01,0.01-0.01,0.02-0.05,0.03c-0.04,0.01-0.19,0.03-0.18,0.02
		c0.05-0.04-0.07-0.03-0.18-0.03c-0.1,0-0.19,0.01-0.36,0.04c-0.01,0-0.04,0-0.04,0c-0.01,0,0-0.01,0-0.01
		c-0.01-0.03-0.04-0.03-0.26,0.01c-0.14,0.03-0.22,0.03-0.22,0.01c0-0.01,0.01-0.02,0.01-0.03c-0.11,0.02-0.23,0.05-0.32,0.05
		c-0.1,0-0.2,0.01-0.16-0.03c0.01-0.01-0.04,0-0.11,0.01c-0.08,0.02-0.13,0.02-0.13,0.02c0.01-0.02,0-0.03-0.1-0.03
		c-0.15,0.01-0.29,0.01-0.43,0.01c-0.02,0-0.05,0-0.06,0c-0.01-0.01-0.01-0.01-0.02-0.02c-0.01-0.02-0.07-0.02-0.29,0.02
		c-0.07,0.01-0.13,0.02-0.16,0.02c0-0.07,0.01-0.14,0.01-0.22c0-0.13-0.01-0.27-0.02-0.41c0.04,0,0.11,0,0.11,0.02
		c0,0.01,0.01,0.03,0.04,0.03c0.16,0,0.36-0.02,0.49-0.01c0.01,0.03,0.02,0.06,0.03,0.09c0.02,0,0.03,0,0.05,0
		c0.07,0,0.22-0.02,0.2,0.01c-0.03,0.04,0.14,0.02,0.15,0.04c0,0.02-0.01,0.04,0.07,0.03c0.11-0.01,0.21-0.01,0.31-0.01
		c-0.03,0.04,0.02,0.05,0.12,0.05c-0.02,0.03,0.03,0.04,0.15,0.04c0.08-0.01,0.15,0,0.22,0c-0.06,0.05,0.15,0.02,0.12,0.06
		c-0.01,0.01,0,0.02,0.05,0.02c0.06,0,0.14-0.01,0.17,0s0,0.03,0.02,0.04c0.02,0.01,0.13-0.01,0.11,0.01
		c-0.03,0.03,0.03,0.03,0.12,0.02c0.04,0,0.08,0,0.11,0c0,0.03-0.01,0.05-0.01,0.07c0,0.01,0.05,0,0.12-0.02
		c0.08-0.02,0.12-0.02,0.11-0.01c-0.06,0.05,0.11,0.02,0.21,0.02c0,0,0.01,0.01,0.01,0.01C108.06,13.25,108.05,13.26,108.06,13.27
		L108.06,13.27z"/>
	<path fill="#010101" d="M66.21,13.5C66.21,13.5,66.21,13.5,66.21,13.5C66.22,13.51,66.22,13.5,66.21,13.5z"/>
</g>
</svg>
